<svg width="48" height="48" viewBox="0 0 48 48" fill="none" xmlns="http://www.w3.org/2000/svg">
<path d="M41.0084 21.0411L41.0105 21.0499L41.0131 21.0586C41.0554 21.2052 41.0704 21.3641 41.056 21.5401L41.0525 21.5831L41.0564 21.6261C41.0586 21.6504 41.059 21.6868 41.059 21.7542L41.059 38.9043C41.059 38.9047 41.059 38.9051 41.059 38.9055C41.0545 40.2006 39.9978 41.2558 38.7044 41.2558H9.30518C8.68201 41.2548 8.08467 41.0068 7.64402 40.5661C7.20347 40.1256 6.95548 39.5284 6.95436 38.9053V21.7542C6.95436 21.6974 6.95791 21.638 6.96276 21.5604L6.96595 21.5093L6.95871 21.4585C6.93649 21.303 6.94802 21.1366 6.99389 20.9637L6.99394 20.9637L6.99533 20.9581L6.99844 20.9509L7.00271 20.9394L11.9199 7.71125L11.926 7.69496L11.9309 7.67828C12.0932 7.12688 12.6058 6.74329 13.1809 6.74329H34.4997C35.0706 6.74329 35.5771 7.11887 35.7472 7.66658L35.7526 7.68421L35.7594 7.70139L41.0069 21.0352L41.0084 21.0411ZM10.2951 18.714L10.0112 19.4042H10.7575H19.9138L19.9185 19.6492C19.9392 20.8001 20.331 21.813 21.08 22.551C21.8305 23.2906 22.8548 23.6605 23.9997 23.6605C25.1749 23.6605 26.1997 23.2668 26.9378 22.5477C27.6762 21.8285 28.0927 20.8179 28.1136 19.6497C28.1136 19.6495 28.1136 19.6493 28.1136 19.6491L28.1183 19.4042H37.0262H37.7804L37.4868 18.7096L33.6571 9.64863L33.528 9.34329H33.1965H14.484H14.149L14.0216 9.6531L10.2951 18.714ZM10.0497 22.0042H9.54967V22.5042V38.1558V38.6558H10.0497H37.9497H38.4497V38.1558V22.5042V22.0042H37.9497H30.6137H30.2837L30.154 22.3077C29.6631 23.4559 28.9094 24.402 27.9497 25.0764L27.9495 25.0765C26.8557 25.8461 25.4912 26.2605 24.0044 26.2605C21.1787 26.2605 18.9409 24.7938 17.8832 22.3084L17.7537 22.0042H17.4231H10.0497Z" fill="#0866FF" stroke="#0866FF"/>
</svg>
